<svg width="11" height="19" xmlns="http://www.w3.org/2000/svg" viewBox="0 0 12 19.95"><defs><style>.cls-1{fill:#ffea00;fill-rule:evenodd;}</style></defs><title>Ресурс 1</title><g id="Слой_2" data-name="Слой 2"><g id="Layer_1" data-name="Layer 1"><path class="cls-1" d="M11.82,10.71c-.28-.57-1.07-1-2.12-.22A6.89,6.89,0,0,1,6,11.61a6.89,6.89,0,0,1-3.7-1.12c-1-.83-1.84-.35-2.12.22-.5,1,.06,1.48,1.33,2.29A8.47,8.47,0,0,0,5,14.06l-.8.8-3,3a1.16,1.16,0,0,0,0,1.64l.14.14a1.15,1.15,0,0,0,.82.34h0A1.15,1.15,0,0,0,3,19.61l3-3,3,3a1.16,1.16,0,0,0,1.64,0l.14-.14a1.16,1.16,0,0,0,0-1.64l-3-3-.8-.8a8.44,8.44,0,0,0,3.51-1c1.27-.81,1.83-1.3,1.33-2.29ZM6,2.56A2.48,2.48,0,1,1,3.52,5,2.48,2.48,0,0,1,6,2.56ZM6,10.1a5,5,0,1,1,5-5A5,5,0,0,1,6,10.1Z"/></g></g></svg>