<svg width="25" height="25" xmlns="http://www.w3.org/2000/svg" viewBox="0 0 63.9 64"><defs><style>.cls-1{fill:#fff;}</style></defs><title>Ресурс 1</title><g id="Слой_2" data-name="Слой 2"><g id="Layer_1" data-name="Layer 1"><path class="cls-1" d="M46.7,38.1a24.83,24.83,0,0,0,3.7-13A24.24,24.24,0,0,0,43,7.3,24.3,24.3,0,0,0,25.2,0,24.15,24.15,0,0,0,7.4,7.3,24.24,24.24,0,0,0,0,25.1,24.62,24.62,0,0,0,7.4,43a24.4,24.4,0,0,0,17.8,7.4,23.94,23.94,0,0,0,13-3.7L55.4,64l8.5-8.6L46.7,38.1ZM25.1,40.7a15,15,0,0,1-11-4.6,14.73,14.73,0,0,1-4.6-11,14.73,14.73,0,0,1,4.6-11,15.79,15.79,0,0,1,11-4.7,16,16,0,0,1,11.1,4.7,15,15,0,0,1,4.5,11,15,15,0,0,1-4.5,11A15.1,15.1,0,0,1,25.1,40.7Z"/></g></g></svg>