<svg width="12" height="15" xmlns="http://www.w3.org/2000/svg" viewBox="0 0 12 15.01"><defs><style>.cls-1{fill:#ffea00;fill-rule:evenodd;}</style></defs><title>Ресурс 1</title><g id="Слой_2" data-name="Слой 2"><g id="Layer_1" data-name="Layer 1"><path class="cls-1" d="M0,0H6.84C9.09,0,11,1.1,11,3.32A3.37,3.37,0,0,1,8.94,6.71c.12.1.91.33,1.17.46a3.22,3.22,0,0,1,1,.71A3.38,3.38,0,0,1,12,10.66C12,13.55,9.2,15,6.5,15H0L0,0Zm3.7,3.94V5.89c1.76,0,3.41.23,3.41-1.67S5.27,2.75,3.73,2.75v1.2Zm0,8.3c1.92,0,4.3.32,4.34-1.87S5.63,8.51,3.73,8.51Z"/></g></g></svg>