<svg xmlns="http://www.w3.org/2000/svg" xmlns:xlink="http://www.w3.org/1999/xlink" viewBox="0 0 307.16 144.4"><defs><style>.cls-1{fill:none;}.cls-2{fill:#231300;}.cls-3{fill:#fff;}.cls-4{clip-path:url(#clip-path);}.cls-5{fill:url(#linear-gradient);}.cls-6{clip-path:url(#clip-path-2);}.cls-7{fill:url(#linear-gradient-2);}.cls-8{clip-path:url(#clip-path-3);}.cls-9{fill:url(#linear-gradient-3);}.cls-10{clip-path:url(#clip-path-4);}.cls-11{fill:url(#linear-gradient-4);}.cls-12{clip-path:url(#clip-path-5);}.cls-13{fill:url(#linear-gradient-5);}.cls-14{fill:#531600;}</style><clipPath id="clip-path"><path class="cls-1" d="M232.82,18.58a73.47,73.47,0,0,0-19.54,7.24A18.25,18.25,0,0,0,206,23.49a29.68,29.68,0,0,0-9.21.49,39.85,39.85,0,0,0-14.91,6.31l-3.55,2.52-.71-4.86-26.73,3.9L153,46c3.41.07,6.66,2.24,7.09,4.95l5.34,36.63a5.71,5.71,0,0,1-1.5,4.51,7.53,7.53,0,0,1-2.83,2.06l1.8,12.39,33-4.81-1.81-12.39a7.55,7.55,0,0,1-3.3-1.16A5.66,5.66,0,0,1,188,84.32l-5.36-36.77a4.52,4.52,0,0,1,.82-3.37c1.23-1.95,3.75-3.58,7.3-4.09,5-.71,8.27,2,8.64,4.41l8.09,55.57L235.35,96l-1.8-12.39a7.59,7.59,0,0,1-3.32-1.16,5.71,5.71,0,0,1-2.71-3.89l-5.34-36.68a4.51,4.51,0,0,1,.82-3.36c1.23-1.94,3.75-3.58,7.31-4.1,4.95-.71,8.27,2,8.65,4.41L247,94.31l27.8-4L273,77.87a7.54,7.54,0,0,1-3.3-1.16,5.66,5.66,0,0,1-2.72-3.9l-6-41.23c-1-6.16-4.73-10.5-10.89-12.57a28.14,28.14,0,0,0-8.95-1.34,40.93,40.93,0,0,0-8.33.9"/></clipPath><linearGradient id="linear-gradient" x1="-36.74" y1="193.69" x2="-35.74" y2="193.69" gradientTransform="matrix(0, -77.08, -77.08, 0, 15142.29, -2733.25)" gradientUnits="userSpaceOnUse"><stop offset="0" stop-color="#531600"/><stop offset="0.01" stop-color="#531600"/><stop offset="0.51" stop-color="#541802"/><stop offset="0.7" stop-color="#5a1f08"/><stop offset="0.83" stop-color="#632a13"/><stop offset="0.93" stop-color="#703b22"/><stop offset="1" stop-color="#7c4b31"/></linearGradient><clipPath id="clip-path-2"><path class="cls-1" d="M138.52,81.42c-.26-1.77,1.59-3.65,4.34-5.78l8.4,6.46a12,12,0,0,1-6,3,10,10,0,0,1-1.4.1c-2.74,0-5-1.25-5.34-3.78m.83-19.06c-.3-2,1.31-3.81,3.72-4.16s4.46.79,4.75,2.8-1.76,3.82-4.37,5.55c-1.51-1.11-3.9-2.79-4.1-4.18m2.71-9.43c-5.17.73-8.54,3.53-9.8,6.75a7.79,7.79,0,0,0-.48,4c.49,3.27,2.15,5,5,7.3-4.08,3-7.55,6.44-7,11.55.77,6.65,7.85,10.46,16.21,9.27a23,23,0,0,0,11.31-5l3.14,2.42,9.89-1.45-.86-5.93-5.09.74-2-1.51a24.37,24.37,0,0,0,2.07-4c.18-.45.35-.9.51-1.37l3.51-.51-.87-6-9.21,1.34a24.11,24.11,0,0,1-2.4,5.64L149.27,71c3.7-2.89,6.88-6.26,6.22-10.65s-5-7.57-11-7.57a17.76,17.76,0,0,0-2.48.18"/></clipPath><linearGradient id="linear-gradient-2" x1="-36.73" y1="193.71" x2="-35.73" y2="193.71" gradientTransform="matrix(0, -39.25, -39.25, 0, 7753.65, -1350.02)" xlink:href="#linear-gradient"/><clipPath id="clip-path-3"><path class="cls-1" d="M94.58,38.72A73.31,73.31,0,0,0,75,46a18.22,18.22,0,0,0-7.26-2.33,29.67,29.67,0,0,0-9.2.48,39.84,39.84,0,0,0-14.91,6.3l-3.55,2.53-.71-4.86L12.68,52l2.07,14.2c3.4.07,6.66,2.25,7.09,5l5.33,36.63a5.7,5.7,0,0,1-1.5,4.51,7.5,7.5,0,0,1-2.83,2.05l1.81,12.4,33-4.81-1.81-12.39a7.59,7.59,0,0,1-3.3-1.16,5.68,5.68,0,0,1-2.72-3.9L44.44,67.7a4.56,4.56,0,0,1,.82-3.38c1.23-1.94,3.74-3.57,7.31-4.09,5-.71,8.27,2,8.64,4.41l8.1,55.57,27.81-4-1.8-12.4A7.61,7.61,0,0,1,92,102.61a5.67,5.67,0,0,1-2.71-3.9L83.94,62a4.5,4.5,0,0,1,.81-3.37c1.24-1.94,3.74-3.58,7.32-4.09,4.94-.71,8.26,2,8.64,4.4l8.08,55.48,27.8-4L134.78,98a7.61,7.61,0,0,1-3.31-1.16,5.67,5.67,0,0,1-2.72-3.9l-6-41.22c-1-6.16-4.72-10.5-10.89-12.57a28.35,28.35,0,0,0-9-1.33,41,41,0,0,0-8.33.89"/></clipPath><linearGradient id="linear-gradient-3" x1="-36.75" y1="193.69" x2="-35.75" y2="193.69" gradientTransform="matrix(0, -77.08, -77.08, 0, 15005.16, -2713.92)" xlink:href="#linear-gradient"/><clipPath id="clip-path-4"><path class="cls-1" d="M289.23,29.94l-.43.75a18.91,18.91,0,0,0-6.63-.11c-5.86.82-10.34,4.94-9.62,10,.6,4.12,4.16,6.22,8.66,7,2.16.4,4.78.65,6.68,1.05,1.34.31,3,.72,3.33,2.41s-1,3.38-4.11,3.8c-3.81.53-6.32-2.22-8-4.43l-4.16.57,1.41,9.65,5.75-.84.44-.85a17.38,17.38,0,0,0,9.35-.33c4.54-1.63,7.66-5.33,7-9.6s-4.58-6.47-9.41-7.29c-2.1-.35-4.21-.54-6.07-.9-1.31-.3-2.93-.66-3.24-2.25s1-3.27,4-3.59c3.76-.41,6.21,2,7.54,4.08l4-.58-1.36-9.33Z"/></clipPath><linearGradient id="linear-gradient-4" x1="-36.74" y1="193.69" x2="-35.74" y2="193.69" gradientTransform="matrix(0, -29.49, -29.49, 0, 5996.58, -1023.93)" xlink:href="#linear-gradient"/><clipPath id="clip-path-5"><polygon class="cls-1" points="267.22 22.48 264.92 31.24 271.4 30.3 273.68 21.55 267.22 22.48"/></clipPath><linearGradient id="linear-gradient-5" x1="-36.68" y1="193.68" x2="-35.68" y2="193.68" gradientTransform="matrix(0, -8.34, -8.34, 0, 1884.03, -275.83)" xlink:href="#linear-gradient"/></defs><title>Ресурс 1</title><g id="Слой_2" data-name="Слой 2"><g id="Layer_1" data-name="Layer 1"><path class="cls-2" d="M231.26,11.88h0a83.27,83.27,0,0,0-18,6.21l-.32.15-.33-.12a25.69,25.69,0,0,0-6-1.42,36.53,36.53,0,0,0-11.35.56,47.28,47.28,0,0,0-10.69,3.66l-1,.48-.17-1.23-.89.13-39.66,5.78,2.86,19.62-.91.06s-3.45.25-5.1.59a25.09,25.09,0,0,0-9.14,3.71l-1.12.79c0-.27-.08-.54-.08-.54-1.25-8.55-6.58-14.64-15.43-17.61C108,30.69,100.58,30.45,93,32a83.26,83.26,0,0,0-18,6.2l-.32.15-.33-.12a26.6,26.6,0,0,0-6-1.42,36.8,36.8,0,0,0-11.36.57A47,47,0,0,0,46.4,41.07l-1,.48-.18-1.23L4.63,46.22l3.92,26.9h.77a6.58,6.58,0,0,1,4.2,1.05,6,6,0,0,1,2.17,4.32l4.21,28.92h0c0,.05,0,.12,0,.17a2.93,2.93,0,0,1,0,.45,4.55,4.55,0,0,1-1.35,3.11,6.94,6.94,0,0,1-2.52,1.52l-.67.26,3.19,21.86,125.75-18.32L141.83,99l1.06.09a28.31,28.31,0,0,0,10.44-1.41l-.12,0,.72-.27.4-.17c.11.77,2.53,17.33,2.53,17.33l123.71-18-4.21-29,13.14-1.95a16.85,16.85,0,0,0,11.31-6.29,11.27,11.27,0,0,0,2.39-6.73l-.1-1.34-4-27.23-9.63,1.4-.84-6A6.88,6.88,0,0,0,286,14.78a7.08,7.08,0,0,0-5.31-1.18l-20.91,3-.28-.22a24.68,24.68,0,0,0-7.3-3.88c-5.95-2-13.37-2.24-20.93-.66"/><path class="cls-2" d="M231.32,12.19h0a82.62,82.62,0,0,0-17.9,6.18l-.44.21-.46-.17a25.55,25.55,0,0,0-5.88-1.4,36.11,36.11,0,0,0-11.26.56,46.8,46.8,0,0,0-10.62,3.63l-1.42.66c0-.38-.18-1.34-.18-1.34l-.58.08-39.35,5.73s2.69,18.48,2.86,19.65l-1.25.09s-3.44.25-5.07.58a24.7,24.7,0,0,0-9,3.66l-1.54,1.08-.15-1.05c-1.23-8.43-6.49-14.43-15.22-17.36-5.88-2-13.26-2.21-20.77-.65a82.65,82.65,0,0,0-17.9,6.18l-.44.21-.46-.16a26,26,0,0,0-5.89-1.41,36.4,36.4,0,0,0-11.26.57,46.8,46.8,0,0,0-10.61,3.63L45.12,42l-.19-1.34L5,46.49,8.83,72.8h.5a6.86,6.86,0,0,1,4.4,1.13A6.28,6.28,0,0,1,16,78.44l4.22,28.92,0,.17a4.68,4.68,0,0,1-1.41,3.81,7.23,7.23,0,0,1-2.63,1.6l-.43.17,3.11,21.3L144,116.19l-2.55-17.5,1.45.12a27.88,27.88,0,0,0,10.29-1.39l1.38-.57,2.54,17.42.58-.08L280.2,96.34s-4.05-27.86-4.21-29l13.45-2a16.56,16.56,0,0,0,11.11-6.17,11,11,0,0,0,2.32-6.54,8.42,8.42,0,0,0-.1-1.29l-3.92-26.92-9.63,1.4c-.13-1-.88-6.33-.88-6.33A6.6,6.6,0,0,0,285.8,15a6.78,6.78,0,0,0-5.08-1.12l-21,3.06-.39-.3a24.41,24.41,0,0,0-7.21-3.83c-5.89-2-13.26-2.21-20.77-.65"/><path class="cls-2" d="M18.37,110.94a5.21,5.21,0,0,1-1.57,4.29A8,8,0,0,1,14,117c.34,2.35,2.55,17.51,3,20.27l124-18.06-2.57-17.64,2.18.18a27.18,27.18,0,0,0,10-1.35l2.07-.86s2.16,14.77,2.56,17.59L277.08,99.33c-.45-3.05-4.21-29-4.21-29l14-2.07c8.94-1.3,13.63-7.94,12.85-13.34,0,0-3.39-23.3-3.84-26.34L286.28,30l-1-6.91A6,6,0,0,0,283,19a6.17,6.17,0,0,0-4.64-1l-21.3,3.1-.58-.46a23.82,23.82,0,0,0-7-3.73c-5.8-2-13.06-2.17-20.47-.63a82.16,82.16,0,0,0-17.76,6.14l-.66.32-.69-.25a25.14,25.14,0,0,0-5.75-1.37,35.71,35.71,0,0,0-11.08.55,46.22,46.22,0,0,0-10.49,3.59l-2.13,1-.22-1.54-38.77,5.65C141.85,33.2,144.3,50,144.3,50l-1.87.13s-3.39.25-5,.58a24.17,24.17,0,0,0-8.8,3.56l-2.32,1.62-.29-2c-1.19-8.19-6.32-14-14.82-16.89-5.79-2-13.06-2.18-20.46-.63A82.24,82.24,0,0,0,73,42.51l-.66.32-.69-.24a25.5,25.5,0,0,0-5.75-1.38,35.94,35.94,0,0,0-11.08.56,46.25,46.25,0,0,0-10.48,3.59l-2.12,1L42,44.81,3.19,50.46c.42,2.87,3.3,22.66,3.67,25.24,1.49,0,3.51.2,4.77,1.27a6.88,6.88,0,0,1,2.49,4.87l4.22,28.92Z"/><path class="cls-3" d="M231.44,12.76a82.23,82.23,0,0,0-17.77,6.13l-.66.32-.69-.25a25.08,25.08,0,0,0-5.75-1.37,35.36,35.36,0,0,0-11.08.55A46.1,46.1,0,0,0,185,21.73l-2.13,1s-.12-.85-.22-1.54l-38.77,5.65c.42,2.89,2.87,19.69,2.87,19.69l-1.87.13s-3.4.25-5,.57a24.16,24.16,0,0,0-8.81,3.57l-2.32,1.62-.29-2c-1.19-8.2-6.32-14-14.82-16.89-5.79-2-13.06-2.18-20.47-.63A82.27,82.27,0,0,0,75.43,39l-.66.32-.69-.25a25.43,25.43,0,0,0-5.75-1.38,35.73,35.73,0,0,0-11.08.56,46.15,46.15,0,0,0-10.48,3.59l-2.13,1-.22-1.53L5.65,47C6.07,49.85,9,69.63,9.33,72.22c1.48,0,3.51.2,4.77,1.27a6.86,6.86,0,0,1,2.48,4.87l4.22,28.92-.27-.71a2.24,2.24,0,0,1,.29.88,5.23,5.23,0,0,1-1.57,4.3,8,8,0,0,1-2.84,1.73c.34,2.35,2.55,17.5,3,20.27l124-18.06-2.57-17.64,2.18.17a27.09,27.09,0,0,0,10-1.35l2.07-.86s2.15,14.77,2.56,17.58L279.54,95.85c-.45-3.05-4.21-29-4.21-29l14-2.08c8.95-1.3,13.64-7.94,12.85-13.34l-3.84-26.34-9.63,1.4-1-6.91a6,6,0,0,0-2.32-4.12,6.19,6.19,0,0,0-4.64-1l-21.3,3.1-.59-.46a23.65,23.65,0,0,0-7-3.73c-5.79-2-13.06-2.17-20.46-.63"/><g class="cls-4"><rect class="cls-5" x="145.16" y="9.21" width="135.43" height="105.83" transform="translate(-6.73 31.34) rotate(-8.29)"/></g><path class="cls-3" d="M129.69,58.67A10.57,10.57,0,0,0,129,64a.17.17,0,0,0,0,0,11.68,11.68,0,0,0,3.49,6.78c-3.26,2.86-6.07,6.65-5.45,12l.05.39a12.32,12.32,0,0,0,4.8,8.09c3.66,2.82,8.93,4,14.48,3.21a25.4,25.4,0,0,0,10.73-4.4l2.57,2,13.79-2-3.51-24-13.72,2-.47,1.74c-.18.66-.6,1.35-.87,2l-1.3-1c2.87-2.76,5.25-6.29,4.58-10.88v0c-1-6.73-8.12-10.91-16.55-9.73-5.74.81-10.22,4-12,8.48"/><g class="cls-6"><rect class="cls-7" x="129.25" y="52.75" width="41.13" height="40.22"/></g><g class="cls-8"><rect class="cls-9" x="6.92" y="29.36" width="135.43" height="105.83" transform="translate(-11.08 11.62) rotate(-8.29)"/></g><path class="cls-2" d="M188,84.32l-5.36-36.77a4.38,4.38,0,0,1,.08-1.76,7.83,7.83,0,0,0-1.91,1.93A4.55,4.55,0,0,0,180,51.1l5.36,36.77a5.68,5.68,0,0,0,2.72,3.9,7.63,7.63,0,0,0,3.3,1.16l1.35,9.29,3.1-.45-1.81-12.39a7.56,7.56,0,0,1-3.3-1.16,5.67,5.67,0,0,1-2.72-3.9"/><path class="cls-2" d="M269.73,76.71a5.66,5.66,0,0,1-2.72-3.9l-6-41.23c-1-6.16-4.73-10.5-10.89-12.57-4.8-1.62-10.94-1.77-17.28-.44a73.44,73.44,0,0,0-19.54,7.24A18.23,18.23,0,0,0,206,23.49a29.71,29.71,0,0,0-9.21.48,39.88,39.88,0,0,0-14.91,6.31l-3.55,2.52-.71-4.86-26.73,3.9.45,3.1L175,31.49l.71,4.86,3.55-2.52a40.07,40.07,0,0,1,14.92-6.3,29.64,29.64,0,0,1,9.19-.48,18.2,18.2,0,0,1,7.26,2.32,73.43,73.43,0,0,1,19.54-7.24c6.35-1.33,12.49-1.17,17.29.44,6.16,2.07,9.92,6.42,10.89,12.56l6,41.23a5.7,5.7,0,0,0,2.72,3.9,7.55,7.55,0,0,0,3.3,1.16l1.35,9.29,3.1-.45L273,77.87a7.52,7.52,0,0,1-3.3-1.16"/><path class="cls-2" d="M227.52,78.57l-5.34-36.68a4.13,4.13,0,0,1,.08-1.76,7.79,7.79,0,0,0-1.91,1.94,4.5,4.5,0,0,0-.82,3.37l5.34,36.67a5.69,5.69,0,0,0,2.72,3.9,7.53,7.53,0,0,0,3.31,1.16l1.35,9.3,3.1-.46-1.8-12.39a7.57,7.57,0,0,1-3.31-1.16,5.71,5.71,0,0,1-2.72-3.89"/><path class="cls-2" d="M49.79,104.46,44.44,67.7a4.34,4.34,0,0,1,.08-1.76,7.74,7.74,0,0,0-1.91,1.94,4.53,4.53,0,0,0-.82,3.37L47.14,108a5.71,5.71,0,0,0,2.72,3.89,7.53,7.53,0,0,0,3.3,1.16l1.36,9.3,3.1-.45-1.81-12.39a7.57,7.57,0,0,1-3.3-1.16,5.69,5.69,0,0,1-2.73-3.9"/><path class="cls-2" d="M89.28,98.71,83.94,62A4.32,4.32,0,0,1,84,60.28a7.81,7.81,0,0,0-1.91,1.95,4.53,4.53,0,0,0-.82,3.37l5.34,36.67a5.69,5.69,0,0,0,2.72,3.9,7.57,7.57,0,0,0,3.31,1.16L94,116.61l3.1-.45-1.8-12.4A7.59,7.59,0,0,1,92,102.61a5.66,5.66,0,0,1-2.71-3.9"/><path class="cls-2" d="M128.76,93l-6-41.22c-1-6.16-4.72-10.5-10.89-12.57-4.8-1.61-10.94-1.76-17.29-.44A73.3,73.3,0,0,0,75,46a18.21,18.21,0,0,0-7.26-2.33,29.67,29.67,0,0,0-9.2.48,39.86,39.86,0,0,0-14.91,6.3l-3.55,2.53-.71-4.86L12.68,52l.45,3.1,23.63-3.44.7,4.86L41,54a39.89,39.89,0,0,1,14.91-6.31,29.7,29.7,0,0,1,9.2-.48,18.17,18.17,0,0,1,7.26,2.32,73.75,73.75,0,0,1,19.54-7.23c6.35-1.33,12.48-1.17,17.28.44,6.16,2.07,9.93,6.41,10.89,12.57l6,41.23a5.69,5.69,0,0,0,2.72,3.9,7.55,7.55,0,0,0,3.3,1.16l1.36,9.29,3.1-.45L134.78,98a7.61,7.61,0,0,1-3.3-1.16,5.67,5.67,0,0,1-2.72-3.9"/><g class="cls-10"><rect class="cls-11" x="269.7" y="27.4" width="32.02" height="35.15" transform="translate(-3.5 41.67) rotate(-8.29)"/></g><g class="cls-12"><rect class="cls-13" x="264.27" y="20.97" width="10.07" height="10.85" transform="translate(-0.99 39.09) rotate(-8.29)"/></g><path class="cls-2" d="M155.75,75.94l-6.07-4.65c-.56.5-1.14,1-1.75,1.46l6.8,5.21c.39-.66.7-1.34,1-2"/><path class="cls-2" d="M143.93,86.88a12,12,0,0,0,6-3l-.54-.42a10.55,10.55,0,0,1-4.14,1.63c-3.35.48-6.3-.72-6.74-3.68a2.82,2.82,0,0,1,.35-1.69c-1.19,1.22-1.84,2.37-1.68,3.47.44,3,3.39,4.15,6.74,3.68"/><path class="cls-2" d="M140.73,54.7c7.23-1,12.7,2.46,13.44,7.4a8,8,0,0,1-1.29,5.56c1.87-2.12,3-4.52,2.62-7.34-.74-4.95-6.21-8.41-13.43-7.4-4.57.65-7.72,2.91-9.26,5.65a13.09,13.09,0,0,1,7.94-3.87"/><path class="cls-2" d="M158.47,70.54c-.15.55-.38,1.11-.59,1.67L166.35,71l.65,4.45,1.55-.22-.87-6Z"/><path class="cls-2" d="M162.46,81.06a24.24,24.24,0,0,0,1.92-3.69l-.67.1c-.16.47-.34.92-.51,1.37a24.74,24.74,0,0,1-2.06,4l2,1.51,5.09-.74.64,4.37,1.55-.22-.86-5.93-5.09.74Z"/><path class="cls-2" d="M138,64.13c.21,1.4,2.6,3.08,4.11,4.18,1.91-1.26,3.52-2.54,4.13-3.94a20.48,20.48,0,0,1-2.81,2.16c-1.51-1.11-3.9-2.79-4.1-4.19a3.09,3.09,0,0,1,.12-1.47A3.43,3.43,0,0,0,138,64.13"/><path class="cls-2" d="M280.84,32.35a18.68,18.68,0,0,1,6.64.11l.44-.74,5.18-.71,1.13,7.78,1.55-.22-1.36-9.33-5.19.71-.43.75a19,19,0,0,0-6.63-.11,11.72,11.72,0,0,0-8.64,5.23,12.73,12.73,0,0,1,7.32-3.46"/><path class="cls-2" d="M289.56,41.8c-2.1-.35-4.21-.53-6.07-.9-1.31-.3-2.93-.66-3.24-2.25a2.3,2.3,0,0,1,.06-.87,2.69,2.69,0,0,0-1.39,2.65c.3,1.58,1.93,1.95,3.23,2.24,1.86.37,4,.55,6.07.9,4.83.82,8.79,3,9.42,7.3a7.39,7.39,0,0,1-.92,4.73A7.76,7.76,0,0,0,299,49.09c-.62-4.27-4.58-6.47-9.41-7.29"/><path class="cls-2" d="M279.14,50.49l-4.16.57.23,1.56,2.6-.36c1.65,2.21,4.16,5,8,4.43,2.45-.34,3.75-1.53,4-2.82a6,6,0,0,1-2.71,1c-3.82.53-6.32-2.22-8-4.43"/><polygon class="cls-2" points="267.22 22.48 266.78 24.13 272.36 23.33 270.51 30.43 271.4 30.3 273.68 21.55 267.22 22.48"/><path class="cls-14" d="M282.49,24.62a4.21,4.21,0,0,1-5-3.65,4.37,4.37,0,0,1,8.64-1.31,4.21,4.21,0,0,1-3.66,5M281.35,17a3.13,3.13,0,0,0-2.59,3.77,3.13,3.13,0,0,0,3.58,2.84h0a3.17,3.17,0,0,0,2.57-3.78A3.15,3.15,0,0,0,281.35,17m.13,5.72-1,.15-.7-4.63,1.73-.26c1.2-.18,2,.05,2.11,1.11a1.09,1.09,0,0,1-.93,1.37l1.49,1.85L283,22.5l-1.36-1.79-.47.07Zm.46-2.86c.44-.07.69-.2.62-.71s-.59-.43-1-.38l-.69.1.16,1.11Z"/><path class="cls-3" d="M292.23,22.65l-.67-4.32,1.12-.17a.85.85,0,0,1,.84.2,1.31,1.31,0,0,1,.3.75.87.87,0,0,1-.3,1h0c.4,0,.61.36.7.92a2.5,2.5,0,0,1,0,.54c-.06.57-.3.84-.79.92Zm.42-2.7c.17,0,.39,0,.47-.23a1,1,0,0,0,0-.48c0-.33-.13-.48-.45-.44l-.32.05.17,1.11Zm.32,1.94a.92.92,0,0,0,.41-.11c.17-.13.15-.41.12-.63-.08-.46-.19-.65-.61-.58l-.27,0,.2,1.31Zm2.72-1.68.29,1.86-.7.11-.67-4.32,1.31-.2a.93.93,0,0,1,1.22.87c.07.47,0,1-.41,1.13h0c.42,0,.6.29.66.7,0,.18.17,1.25.36,1.34v.08l-.76.12a4.85,4.85,0,0,1-.24-1.08c0-.26-.1-.63-.35-.67a1.93,1.93,0,0,0-.6,0Zm-.1-.63.55-.08c.22-.05.38-.26.31-.69s-.26-.54-.53-.5l-.51.08Zm2.74,2.13.22-4.46.94-.15L301,21.29l-.74.11-.35-1.07-.81.13v1.12Zm.77-1.89.6-.09-.38-1.2c-.07-.2-.11-.39-.16-.59s0-.2-.07-.28h0c0,.09,0,.19,0,.29s0,.4,0,.61Zm3.57-3.21.69-.11.67,4.32-.72.11-.78-1.46a16.36,16.36,0,0,1-.76-1.64h0c.08.35.18.78.27,1.22s.17.86.22,1.21l.13.81-.7.11L301,16.86l.72-.11.78,1.49a15.42,15.42,0,0,1,.76,1.64h0c-.09-.39-.18-.8-.26-1.22s-.17-.82-.22-1.21ZM305,20.67l-.67-4.32,1.45-.23a.84.84,0,0,1,.79.38A3.46,3.46,0,0,1,307,18c.13.85.29,1.84-.22,2.31a.89.89,0,0,1-.49.2Zm.9-.79c.62-.1.6-.48.4-1.73-.16-1-.31-1.41-.72-1.35l-.46.07.47,3.06Z"/></g></g></svg>